<?xml version="1.0" standalone="no"?><!DOCTYPE svg PUBLIC "-//W3C//DTD SVG 1.1//EN" "http://www.w3.org/Graphics/SVG/1.1/DTD/svg11.dtd"><svg xmlns:xlink="http://www.w3.org/1999/xlink" xmlns="http://www.w3.org/2000/svg" version="1.1" width="200" height="200" viewBox="0 0 200 200"><defs><style type="text/css"><![CDATA[
@font-face {
  font-family: "ifont";
  src: url("//at.alicdn.com/t/font_1442373896_4754455.eot?#iefix") format("embedded-opentype"), url("//at.alicdn.com/t/font_1442373896_4754455.woff") format("woff"), url("//at.alicdn.com/t/font_1442373896_4754455.ttf") format("truetype"), url("//at.alicdn.com/t/font_1442373896_4754455.svg#ifont") format("svg");
}

]]></style></defs><g class="transform-group"><g transform="scale(0.1953125, 0.1953125)"><path d="M551.988 989.634c-92.012 0-166.886-70.028-166.886-156.11v-524.197c0-67.728 55.103-122.809 122.832-122.809 67.728 0 122.786 55.081 122.786 122.809v453.718c0 16.007-12.965 28.994-28.973 28.994-16.006 0-28.972-12.987-28.972-28.994v-453.718c0-35.759-29.085-64.843-64.843-64.843s-64.844 29.085-64.844 64.843v524.198c0 54.11 48.835 98.144 108.898 98.144 83.826 0 126.348-56.23 126.348-167.068v-505.418c0-92.123-74.942-167.044-167.067-167.044-92.124 0-167.067 74.922-167.067 167.044v505.418c0 16.009-12.964 28.994-28.972 28.994-16.031 0-28.994-12.986-28.994-28.994v-505.418c0-124.070 100.962-225.009 225.034-225.009 124.070 0 225.034 100.939 225.034 225.009v505.418c-0.001 143.011-67.166 225.034-184.315 225.034z" fill="#272636"></path></g></g></svg>